<svg width="259" height="138" viewBox="0 0 259 138" fill="none" xmlns="http://www.w3.org/2000/svg">
<g clip-path="url(#clip0_3_2)">
<path d="M131.672 82.1523C131.674 82.49 131.545 82.8174 131.309 83.0765C131.073 83.3355 130.744 83.5094 130.381 83.5674C130.018 83.6254 129.645 83.5636 129.327 83.3932C129.009 83.2227 128.767 82.9545 128.645 82.6361C128.522 82.3178 128.526 81.9698 128.656 81.6539C128.786 81.338 129.034 81.0747 129.356 80.9105C129.678 80.7464 130.053 80.6921 130.414 80.7572C130.776 80.8224 131.1 81.0028 131.33 81.2664C131.551 81.5173 131.672 81.8299 131.672 82.1523V82.1523Z" fill="#21295C"/>
<path d="M122.527 83.0048C122.523 83.3072 122.413 83.6004 122.213 83.8405C121.99 84.1088 121.671 84.2957 121.312 84.3676C120.954 84.4395 120.578 84.3918 120.254 84.233C119.93 84.0742 119.679 83.8147 119.545 83.501C119.411 83.1874 119.403 82.8402 119.522 82.5217C119.642 82.2032 119.882 81.9343 120.198 81.7633C120.515 81.5922 120.887 81.5302 121.249 81.5884C121.611 81.6466 121.939 81.8211 122.173 82.0807C122.407 82.3403 122.533 82.6679 122.527 83.0048V83.0048Z" fill="#21295C"/>
<path d="M113.902 85.9089C113.901 86.0967 113.861 86.2826 113.783 86.4563C113.644 86.7584 113.395 87.007 113.079 87.1603C112.763 87.3137 112.399 87.3623 112.048 87.2979C111.697 87.2336 111.381 87.0603 111.154 86.8073C110.926 86.5542 110.801 86.2369 110.799 85.9089C110.799 85.7212 110.84 85.5353 110.917 85.3615C111.057 85.0595 111.306 84.8108 111.622 84.6575C111.938 84.5042 112.302 84.4556 112.653 84.5199C113.003 84.5843 113.319 84.7576 113.547 85.0106C113.774 85.2637 113.9 85.5809 113.902 85.9089V85.9089Z" fill="#21295C"/>
<path d="M106.343 90.6893L106.343 90.8941C106.29 91.2525 106.091 91.5792 105.786 91.8076C105.48 92.036 105.091 92.1489 104.697 92.1234C104.304 92.0978 103.936 91.9356 103.669 91.67C103.401 91.4043 103.254 91.0551 103.258 90.6935C103.253 90.6253 103.253 90.5569 103.258 90.4887C103.31 90.1303 103.509 89.8036 103.815 89.5752C104.121 89.3468 104.51 89.2339 104.903 89.2594C105.296 89.285 105.664 89.4472 105.932 89.7128C106.199 89.9785 106.346 90.3277 106.343 90.6893V90.6893Z" fill="#21295C"/>
<path d="M100.314 97.0659C100.316 97.4143 100.177 97.7509 99.9251 98.0115C99.6729 98.272 99.3249 98.4382 98.9475 98.4783C98.5403 98.5172 98.1327 98.4074 97.8129 98.1728C97.4932 97.9382 97.287 97.5976 97.2389 97.2247C97.2343 97.1733 97.2343 97.1216 97.2389 97.0701C97.2398 96.7069 97.3924 96.3579 97.6652 96.0947C97.9381 95.8314 98.3105 95.674 98.7059 95.6548C99.1014 95.6355 99.4898 95.7559 99.7915 95.9911C100.093 96.2264 100.285 96.5586 100.328 96.9197C100.328 96.9687 100.323 97.0176 100.314 97.0659Z" fill="#21295C"/>
<path d="M96.2001 104.588C96.1993 104.825 96.1338 105.059 96.0095 105.267C95.8851 105.476 95.7059 105.653 95.488 105.781C95.2702 105.91 95.0207 105.987 94.7623 106.005C94.5039 106.022 94.2447 105.98 94.0084 105.883C93.7754 105.786 93.5721 105.638 93.4164 105.452C93.2606 105.266 93.1574 105.048 93.1158 104.816C93.0742 104.585 93.0955 104.348 93.1778 104.126C93.2602 103.904 93.401 103.704 93.5878 103.544C93.7746 103.384 94.0016 103.268 94.2487 103.208C94.4958 103.147 94.7554 103.144 95.0043 103.198C95.2532 103.251 95.4839 103.36 95.6758 103.515C95.8677 103.67 96.0149 103.866 96.1044 104.086C96.1677 104.247 96.2001 104.417 96.2001 104.588V104.588Z" fill="#21295C"/>
<path d="M94.259 112.811C94.2592 113.019 94.2096 113.224 94.1138 113.413C94.018 113.601 93.8783 113.768 93.7044 113.902C93.5306 114.035 93.327 114.132 93.1079 114.186C92.8888 114.239 92.6595 114.248 92.4364 114.211C92.0783 114.151 91.7543 113.979 91.5204 113.723C91.2865 113.467 91.1576 113.145 91.156 112.811C91.1569 112.582 91.2178 112.357 91.3336 112.154C91.4494 111.951 91.6166 111.776 91.8213 111.645C91.9875 111.538 92.1755 111.462 92.3742 111.421C92.5729 111.381 92.7784 111.378 92.9786 111.411C93.3826 111.477 93.7414 111.688 93.9764 111.996C94.161 112.234 94.2598 112.519 94.259 112.811V112.811Z" fill="#21295C"/>
<path d="M94.6099 121.231C94.6092 121.555 94.4879 121.869 94.2661 122.121C94.0444 122.373 93.7354 122.548 93.3903 122.617C93.0453 122.686 92.6849 122.644 92.369 122.5C92.053 122.355 91.8004 122.116 91.653 121.822C91.5055 121.527 91.4721 121.196 91.5583 120.882C91.6445 120.568 91.8451 120.29 92.1269 120.095C92.4086 119.9 92.7547 119.799 93.1076 119.808C93.4606 119.818 93.7993 119.938 94.0676 120.149C94.238 120.282 94.3748 120.448 94.4684 120.635C94.562 120.822 94.6103 121.025 94.6099 121.231V121.231Z" fill="#21295C"/>
<path d="M166.574 122.857C166.573 123.202 166.434 123.536 166.183 123.794C165.932 124.052 165.587 124.218 165.212 124.258C164.838 124.299 164.46 124.213 164.15 124.016C163.84 123.819 163.619 123.525 163.529 123.189C163.439 122.853 163.487 122.499 163.662 122.193C163.838 121.887 164.129 121.65 164.482 121.527C164.834 121.405 165.224 121.405 165.576 121.527C165.929 121.65 166.221 121.886 166.396 122.192C166.514 122.397 166.575 122.625 166.574 122.857V122.857Z" fill="#21295C"/>
<path d="M167.376 114.466C167.377 114.664 167.332 114.86 167.245 115.042C167.158 115.223 167.03 115.386 166.87 115.519C166.564 115.772 166.161 115.904 165.749 115.887C165.443 115.873 165.148 115.776 164.902 115.608C164.656 115.44 164.47 115.209 164.367 114.945C164.264 114.68 164.249 114.393 164.324 114.12C164.399 113.847 164.56 113.601 164.788 113.413C165.092 113.16 165.493 113.028 165.903 113.046C166.313 113.064 166.699 113.23 166.975 113.509C167.234 113.771 167.377 114.112 167.376 114.466V114.466Z" fill="#21295C"/>
<path d="M165.882 106.155C165.879 106.481 165.755 106.797 165.529 107.05C165.304 107.304 164.991 107.478 164.642 107.546C164.442 107.586 164.235 107.59 164.033 107.556C163.831 107.522 163.639 107.452 163.467 107.35C163.295 107.247 163.147 107.114 163.031 106.959C162.915 106.804 162.835 106.629 162.793 106.444C162.752 106.26 162.751 106.07 162.79 105.886C162.83 105.701 162.909 105.525 163.023 105.369C163.136 105.213 163.283 105.078 163.454 104.974C163.625 104.87 163.817 104.799 164.018 104.763C164.243 104.72 164.476 104.724 164.7 104.774C164.923 104.824 165.132 104.919 165.311 105.052C165.489 105.186 165.633 105.354 165.732 105.544C165.83 105.735 165.882 105.943 165.882 106.155Z" fill="#21295C"/>
<path d="M162.2 98.4449C162.199 98.6028 162.169 98.7594 162.113 98.9087C161.995 99.2283 161.757 99.4988 161.441 99.672C161.126 99.8452 160.753 99.9096 160.39 99.8538C160.027 99.798 159.698 99.6256 159.461 99.3675C159.224 99.1093 159.095 98.7823 159.097 98.4449C159.097 98.2868 159.126 98.1299 159.184 97.9811C159.302 97.6615 159.54 97.3909 159.856 97.2178C160.172 97.0446 160.544 96.9801 160.907 97.0359C161.27 97.0917 161.599 97.2641 161.836 97.5223C162.073 97.7804 162.202 98.1075 162.2 98.4449Z" fill="#21295C"/>
<path d="M156.495 91.8217L156.495 91.9387C156.465 92.3054 156.28 92.6468 155.981 92.8913C155.681 93.1357 155.29 93.2641 154.889 93.2495C154.488 93.2349 154.11 93.0784 153.832 92.8129C153.555 92.5474 153.4 92.1936 153.401 91.8259L153.401 91.7089C153.432 91.3422 153.617 91.0008 153.916 90.7564C154.216 90.5119 154.607 90.3835 155.008 90.3981C155.408 90.4127 155.787 90.5692 156.065 90.8347C156.342 91.1002 156.496 91.454 156.495 91.8217V91.8217Z" fill="#21295C"/>
<path d="M149.2 86.707C149.201 86.9674 149.123 87.2229 148.975 87.4454C148.828 87.668 148.617 87.8491 148.365 87.969C148.112 88.0889 147.829 88.1429 147.546 88.1253C147.263 88.1076 146.99 88.0188 146.758 87.8687C146.591 87.7623 146.448 87.6261 146.34 87.4681C146.231 87.3102 146.158 87.1338 146.125 86.9494C146.108 86.8695 146.101 86.7883 146.102 86.707C146.102 86.3514 146.248 86.0086 146.51 85.7466C146.772 85.4846 147.132 85.3224 147.519 85.2919C147.905 85.2615 148.29 85.365 148.597 85.5822C148.904 85.7993 149.111 86.1142 149.178 86.4647C149.194 86.5446 149.202 86.6258 149.2 86.707V86.707Z" fill="#21295C"/>
<path d="M140.748 83.4143C140.748 83.6447 140.686 83.8716 140.569 84.0754C140.452 84.2792 140.283 84.454 140.076 84.5846C139.869 84.7153 139.63 84.7979 139.381 84.8255C139.131 84.8531 138.878 84.8249 138.643 84.7431C138.35 84.6396 138.098 84.4573 137.92 84.2202C137.742 83.9831 137.646 83.7022 137.645 83.4143C137.644 83.0879 137.765 82.7708 137.988 82.5166C138.211 82.2623 138.523 82.0863 138.871 82.0181C139.219 81.95 139.582 81.9938 139.899 82.1423C140.216 82.2908 140.468 82.5348 140.612 82.8334C140.702 83.0158 140.749 83.2139 140.748 83.4143V83.4143Z" fill="#21295C"/>
<path d="M49.8838 56.3867C49.8623 56.7508 49.6895 57.0934 49.4009 57.3441C49.1123 57.5948 48.7299 57.7345 48.3324 57.7345C47.9348 57.7345 47.5524 57.5948 47.2638 57.3441C46.9752 57.0934 46.8024 56.7508 46.7809 56.3867C46.7801 56.0642 46.9008 55.7512 47.1226 55.5009C47.3228 55.2703 47.5963 55.1024 47.9051 55.0207C48.2139 54.939 48.5428 54.9474 48.8462 55.0447C49.1496 55.142 49.4125 55.3235 49.5984 55.564C49.7843 55.8044 49.884 56.092 49.8838 56.3867Z" fill="#21295C"/>
<path d="M121.971 71.5761C121.973 71.9989 121.797 72.4061 121.48 72.7133C121.163 73.0204 120.73 73.204 120.269 73.2261C119.809 73.2481 119.357 73.1068 119.007 72.8316C118.657 72.5563 118.436 72.1681 118.39 71.7475L118.39 71.572C118.387 71.1488 118.562 70.7409 118.878 70.4328C119.195 70.1248 119.628 69.9404 120.089 69.9178C120.55 69.8952 121.003 70.0362 121.353 70.3116C121.703 70.5869 121.925 70.9754 121.971 71.3965L121.971 71.5761Z" fill="#21295C"/>
<path d="M105.19 77.5558C105.191 77.815 105.125 78.0709 104.998 78.3024C104.871 78.5339 104.686 78.7345 104.458 78.8877C104.23 79.041 103.965 79.1425 103.686 79.1841C103.407 79.2257 103.122 79.2061 102.852 79.127C102.618 79.0693 102.399 78.9685 102.208 78.8309C102.017 78.6933 101.859 78.5216 101.742 78.3262C101.626 78.1309 101.554 77.9159 101.531 77.6943C101.508 77.4727 101.534 77.2491 101.607 77.037C101.681 76.8249 101.801 76.6287 101.96 76.4603C102.118 76.2919 102.313 76.1547 102.531 76.0572C102.749 75.9596 102.987 75.9036 103.229 75.8926C103.471 75.8815 103.714 75.9157 103.941 75.993C104.166 76.0582 104.374 76.1633 104.554 76.3024C104.733 76.4416 104.882 76.6119 104.989 76.8036C105.123 77.0352 105.192 77.2937 105.19 77.5558V77.5558Z" fill="#21295C"/>
<path d="M91.8942 88.6877C91.8892 89.0634 91.7442 89.4262 91.4833 89.7159C91.2225 90.0056 90.8615 90.2048 90.4602 90.2803C90.0589 90.3559 89.6415 90.3033 89.2773 90.1313C88.913 89.9594 88.6239 89.6783 88.4579 89.3349C88.2918 88.9914 88.2589 88.6062 88.3645 88.2432C88.4701 87.8802 88.7079 87.5612 89.0384 87.3393C89.3689 87.1173 89.7723 87.0057 90.1815 87.0229C90.5908 87.0402 90.9812 87.1853 91.2882 87.4341C91.4815 87.5909 91.6357 87.784 91.7402 88.0003C91.8448 88.2166 91.8973 88.4511 91.8942 88.6877V88.6877Z" fill="#21295C"/>
<path d="M83.8794 103.463C83.8797 103.659 83.8427 103.852 83.7701 104.036C83.6249 104.4 83.3445 104.705 82.9782 104.898C82.6119 105.091 82.1831 105.159 81.7673 105.091C81.3515 105.022 80.9753 104.822 80.7049 104.524C80.4345 104.226 80.2872 103.851 80.289 103.463C80.2883 103.269 80.3269 103.077 80.4029 102.895C80.4841 102.692 80.6082 102.506 80.7682 102.347C80.9282 102.188 81.1208 102.059 81.3351 101.969C81.5493 101.879 81.7809 101.828 82.0166 101.82C82.2523 101.811 82.4874 101.846 82.7084 101.922C83.0496 102.041 83.3437 102.252 83.5525 102.527C83.7614 102.802 83.8752 103.128 83.8794 103.463V103.463Z" fill="#21295C"/>
<path d="M178.097 103.426C178.097 103.724 178.009 104.016 177.842 104.271C177.675 104.526 177.436 104.736 177.15 104.876C176.864 105.017 176.542 105.084 176.217 105.07C175.893 105.056 175.579 104.961 175.309 104.796C175.111 104.678 174.942 104.524 174.809 104.345C174.677 104.166 174.585 103.964 174.539 103.752C174.515 103.643 174.503 103.533 174.502 103.422C174.502 103.124 174.591 102.832 174.757 102.577C174.924 102.321 175.163 102.112 175.45 101.971C175.736 101.831 176.058 101.764 176.382 101.778C176.706 101.792 177.02 101.886 177.291 102.051C177.488 102.17 177.658 102.323 177.79 102.503C177.922 102.682 178.014 102.883 178.061 103.096C178.084 103.204 178.097 103.315 178.097 103.426V103.426Z" fill="#21295C"/>
<path d="M170.064 88.6501C170.065 88.9262 169.989 89.198 169.845 89.4404C169.701 89.6829 169.493 89.8882 169.24 90.0374C168.837 90.2678 168.353 90.3452 167.889 90.2532C167.425 90.1611 167.019 89.9068 166.756 89.5444C166.573 89.2792 166.476 88.9722 166.474 88.6585C166.473 88.3818 166.548 88.1093 166.693 87.8666C166.838 87.624 167.048 87.4191 167.303 87.2712C167.574 87.1111 167.887 87.0209 168.208 87.0101C168.53 86.9994 168.849 87.0684 169.132 87.21C169.415 87.3516 169.651 87.5605 169.815 87.8147C169.979 88.0689 170.065 88.3589 170.064 88.6543L170.064 88.6501Z" fill="#21295C"/>
<path d="M156.76 77.5391C156.76 77.9757 156.57 78.3945 156.234 78.7033C155.897 79.012 155.44 79.1855 154.964 79.1855C154.488 79.1855 154.032 79.012 153.695 78.7033C153.358 78.3945 153.169 77.9757 153.169 77.5391C153.17 77.147 153.324 76.7682 153.602 76.4703C153.88 76.1725 154.264 75.9751 154.686 75.9136C154.919 75.8798 155.157 75.8886 155.386 75.9395C155.615 75.9904 155.831 76.0825 156.021 76.2103C156.248 76.3642 156.433 76.5644 156.561 76.795C156.689 77.0256 156.757 77.2803 156.76 77.5391Z" fill="#21295C"/>
<path d="M139.969 71.5761C139.969 71.7172 139.949 71.8576 139.91 71.994C139.833 72.2554 139.688 72.4955 139.486 72.693C139.284 72.8906 139.033 73.0395 138.753 73.1265C138.474 73.2136 138.175 73.2361 137.884 73.1921C137.593 73.1481 137.318 73.039 137.084 72.8743C136.85 72.7097 136.663 72.4946 136.541 72.2482C136.419 72.0018 136.365 71.7315 136.384 71.4614C136.403 71.1913 136.495 70.9297 136.65 70.6997C136.806 70.4697 137.021 70.2785 137.276 70.1429C137.48 70.0329 137.707 69.9618 137.942 69.9338C138.176 69.9058 138.415 69.9215 138.643 69.9799C139.025 70.0747 139.362 70.2827 139.602 70.5714C139.842 70.86 139.971 71.2132 139.969 71.5761V71.5761Z" fill="#21295C"/>
<path d="M258.108 115.423C258.109 115.733 258.01 116.036 257.823 116.294C257.635 116.553 257.369 116.754 257.057 116.873C256.745 116.993 256.401 117.024 256.069 116.964C255.737 116.904 255.433 116.755 255.193 116.536C254.954 116.317 254.791 116.038 254.724 115.734C254.658 115.43 254.691 115.115 254.821 114.828C254.95 114.542 255.169 114.297 255.45 114.124C255.731 113.952 256.062 113.86 256.4 113.86C256.852 113.86 257.286 114.024 257.606 114.317C257.927 114.61 258.107 115.008 258.108 115.423Z" fill="#21295C"/>
<path d="M245.496 64.7482C245.497 64.9994 245.433 65.2472 245.308 65.4706C245.182 65.694 245 65.8864 244.777 66.0315C244.553 66.1767 244.295 66.2703 244.023 66.3044C243.752 66.3385 243.476 66.3121 243.218 66.2275C243.006 66.16 242.811 66.0548 242.643 65.9178C242.476 65.7808 242.34 65.6148 242.243 65.4293C242.047 65.0552 242.021 64.6252 242.17 64.2335C242.32 63.8418 242.633 63.5205 243.04 63.34C243.448 63.1604 243.917 63.1365 244.344 63.2736C244.771 63.4107 245.122 63.6976 245.318 64.0713C245.434 64.2814 245.494 64.513 245.496 64.7482V64.7482Z" fill="#21295C"/>
<path d="M210.161 24.115C210.159 24.4995 210.004 24.8701 209.724 25.1565C209.445 25.443 209.06 25.6255 208.644 25.6695C208.405 25.6942 208.164 25.6724 207.935 25.6056C207.706 25.5387 207.495 25.4283 207.316 25.2815C207.138 25.1347 206.994 24.955 206.896 24.7539C206.799 24.5529 206.748 24.3352 206.748 24.115C206.746 23.7606 206.878 23.4164 207.122 23.1414C207.342 22.8871 207.643 22.7019 207.983 22.6116C208.323 22.5213 208.685 22.5302 209.019 22.6373C209.353 22.7443 209.643 22.9441 209.847 23.2089C210.052 23.4737 210.162 23.7904 210.161 24.115V24.115Z" fill="#21295C"/>
<path d="M159.097 1.56284C159.097 1.67947 159.083 1.79578 159.056 1.90967C159.008 2.11072 158.916 2.30079 158.786 2.46873C158.656 2.63667 158.491 2.77905 158.3 2.88746C158.042 3.03561 157.745 3.11786 157.441 3.1257C157.137 3.13354 156.836 3.06668 156.569 2.93205C156.302 2.79741 156.08 2.59989 155.924 2.3599C155.769 2.11992 155.686 1.84619 155.684 1.56702C155.683 1.44872 155.698 1.33075 155.73 1.216C155.821 0.839941 156.061 0.508162 156.403 0.284402C156.745 0.0606416 157.166 -0.0393336 157.583 0.00367417C158.001 0.046682 158.386 0.229661 158.666 0.517436C158.945 0.805211 159.099 1.17751 159.097 1.56284V1.56284Z" fill="#21295C"/>
<path d="M102.424 1.56701C102.421 1.9502 102.265 2.319 101.985 2.60366C101.705 2.88832 101.321 3.0691 100.906 3.11181C100.491 3.15452 100.073 3.05619 99.7312 2.83544C99.3897 2.6147 99.1482 2.28682 99.0524 1.91382C99.0252 1.79847 99.0115 1.68082 99.0114 1.56282C99.0097 1.17749 99.1634 0.805195 99.4428 0.51742C99.7222 0.229645 100.108 0.0466654 100.525 0.0036576C100.943 -0.0393502 101.363 0.060625 101.705 0.284385C102.047 0.508146 102.287 0.839924 102.379 1.21599C102.41 1.33079 102.425 1.44872 102.424 1.56701V1.56701Z" fill="#21295C"/>
<path d="M51.3601 24.115C51.3595 24.4842 51.2164 24.8412 50.9562 25.1229C50.696 25.4046 50.3355 25.5927 49.9385 25.6539C49.5415 25.7151 49.1337 25.6454 48.7874 25.4572C48.4411 25.2691 48.1786 24.9745 48.0464 24.6258C47.9142 24.2771 47.9209 23.8968 48.0653 23.5522C48.2096 23.2076 48.4824 22.921 48.8351 22.7431C49.1879 22.5653 49.5979 22.5077 49.9925 22.5806C50.3871 22.6535 50.7409 22.8522 50.991 23.1414C51.2309 23.4182 51.3611 23.7615 51.3601 24.115Z" fill="#21295C"/>
<path d="M16.025 64.7524C16.0261 64.9869 15.9684 65.2185 15.8564 65.4293C15.6872 65.7473 15.4057 66.0033 15.0576 66.1559C14.7096 66.3084 14.3155 66.3485 13.9395 66.2695C13.5635 66.1906 13.2277 65.9973 12.9867 65.7211C12.7457 65.4449 12.6137 65.102 12.6122 64.7482C12.6132 64.5139 12.6708 64.2828 12.7808 64.0713C12.95 63.7534 13.2315 63.4973 13.5795 63.3448C13.9275 63.1922 14.3216 63.1522 14.6976 63.2311C15.0736 63.3101 15.4094 63.5034 15.6504 63.7796C15.8914 64.0558 16.0234 64.3987 16.025 64.7524V64.7524Z" fill="#21295C"/>
<path d="M3.41268 115.423C3.41358 115.733 3.31402 116.037 3.12662 116.295C2.93922 116.553 2.67241 116.755 2.36 116.874C2.0476 116.993 1.70367 117.024 1.37179 116.964C1.03992 116.904 0.735053 116.754 0.495818 116.535C0.256583 116.316 0.0937566 116.036 0.0279728 115.732C-0.037811 115.427 -0.00359309 115.112 0.126296 114.825C0.256185 114.539 0.475897 114.294 0.757582 114.122C1.03927 113.95 1.37025 113.859 1.70858 113.86C2.16016 113.861 2.59291 114.026 2.91223 114.319C3.23155 114.612 3.41148 115.009 3.41268 115.423Z" fill="#21295C"/>
<path d="M222.987 96.0881C222.989 96.4389 222.85 96.7779 222.595 97.0398C222.341 97.3018 221.99 97.4683 221.61 97.5072C221.23 97.5461 220.848 97.4547 220.537 97.2506C220.226 97.0464 220.008 96.744 219.925 96.4015C219.898 96.2975 219.884 96.1909 219.884 96.0839C219.883 95.7332 220.022 95.3942 220.276 95.1322C220.531 94.8702 220.882 94.7038 221.262 94.6649C221.642 94.626 222.024 94.7174 222.335 94.9215C222.646 95.1256 222.864 95.4281 222.946 95.7705C222.974 95.8745 222.987 95.9812 222.987 96.0881V96.0881Z" fill="#21295C"/>
<path d="M231.262 94.354C231.264 94.6764 231.146 94.9899 230.927 95.2422C230.708 95.4946 230.402 95.6707 230.059 95.7413C229.658 95.8239 229.237 95.7578 228.889 95.5575C228.541 95.3571 228.293 95.0387 228.2 94.6716C228.177 94.567 228.164 94.4607 228.164 94.354C228.16 94.0029 228.299 93.6632 228.553 93.4004C228.807 93.1376 229.158 92.9703 229.539 92.9308C229.919 92.8914 230.302 92.9825 230.613 93.1867C230.925 93.3908 231.143 93.6935 231.225 94.0364C231.249 94.1409 231.261 94.2473 231.262 94.354Z" fill="#21295C"/>
<path d="M204.689 61.2423C204.689 61.4424 204.643 61.6401 204.554 61.8227C204.465 62.0053 204.335 62.1686 204.172 62.302C204.01 62.4353 203.818 62.5356 203.61 62.5964C203.403 62.6572 203.183 62.6771 202.966 62.6547C202.764 62.6339 202.568 62.5767 202.39 62.4864C202.212 62.3962 202.055 62.2746 201.928 62.1287C201.801 61.9829 201.707 61.8155 201.651 61.6361C201.594 61.4568 201.577 61.269 201.6 61.0835C201.622 60.8981 201.685 60.7185 201.783 60.5551C201.881 60.3917 202.014 60.2477 202.173 60.1313C202.332 60.0149 202.515 59.9284 202.71 59.8767C202.906 59.825 203.111 59.8091 203.313 59.83C203.69 59.8709 204.037 60.0373 204.289 60.2977C204.541 60.5581 204.68 60.8942 204.68 61.2423L204.689 61.2423Z" fill="#21295C"/>
<path d="M211.327 56.3867C211.327 56.7223 211.197 57.0469 210.961 57.3031C210.725 57.5594 210.397 57.7306 210.037 57.7866C209.676 57.8425 209.305 57.7796 208.99 57.6089C208.675 57.4382 208.436 57.1708 208.316 56.854C208.195 56.5371 208.201 56.1914 208.331 55.878C208.462 55.5646 208.71 55.3038 209.03 55.1417C209.35 54.9797 209.723 54.9268 210.082 54.9925C210.441 55.0583 210.762 55.2383 210.99 55.5009C211.209 55.7526 211.328 56.0649 211.327 56.3867V56.3867Z" fill="#21295C"/>
<path d="M171.718 37.1315C171.719 37.3445 171.666 37.5547 171.563 37.7458C171.476 37.9148 171.353 38.0662 171.201 38.1911C171.05 38.316 170.872 38.4118 170.679 38.4729C170.297 38.5773 169.885 38.5425 169.529 38.3758C169.174 38.2092 168.902 37.9233 168.77 37.5777C168.638 37.2321 168.656 36.8531 168.821 36.5195C168.986 36.1859 169.284 35.9232 169.654 35.786C169.846 35.7234 170.05 35.6967 170.253 35.7074C170.457 35.7182 170.656 35.7662 170.839 35.8487C171.102 35.9658 171.323 36.1481 171.479 36.3748C171.634 36.6015 171.717 36.8637 171.718 37.1315Z" fill="#21295C"/>
<path d="M175.414 30.1156C175.413 30.4118 175.311 30.7004 175.123 30.9414C174.936 31.1825 174.671 31.3641 174.366 31.4611C174.174 31.5237 173.97 31.5504 173.766 31.5396C173.563 31.5289 173.364 31.4808 173.181 31.3984C172.918 31.2821 172.696 31.1 172.54 30.8731C172.384 30.6462 172.302 30.3836 172.302 30.1156C172.301 29.9026 172.354 29.6923 172.457 29.5013C172.544 29.3322 172.667 29.1808 172.819 29.056C172.97 28.9311 173.148 28.8353 173.341 28.7742C173.575 28.6995 173.825 28.6773 174.07 28.7094C174.316 28.7415 174.549 28.827 174.751 28.9587C174.953 29.0903 175.118 29.2645 175.231 29.4664C175.345 29.6684 175.405 29.8924 175.405 30.1197L175.414 30.1156Z" fill="#21295C"/>
<path d="M89.4929 37.1274C89.4911 37.3951 89.4079 37.657 89.2525 37.8837C89.0971 38.1103 88.8758 38.2927 88.6135 38.4102C88.4302 38.4915 88.2313 38.5389 88.028 38.5497C87.8247 38.5604 87.6211 38.5344 87.4288 38.4729C87.2378 38.408 87.0629 38.3087 86.9142 38.181C86.7656 38.0533 86.6462 37.8996 86.5631 37.7291C86.4605 37.5381 86.4074 37.3278 86.4082 37.1148C86.4095 36.847 86.4925 36.5849 86.6479 36.3581C86.8034 36.1314 87.025 35.9491 87.2876 35.832C87.4706 35.7498 87.6696 35.7019 87.873 35.6911C88.0765 35.6803 88.2802 35.7069 88.4723 35.7693C88.775 35.8675 89.0373 36.049 89.2233 36.2891C89.4092 36.5292 89.5098 36.8162 89.5111 37.1107L89.4929 37.1274Z" fill="#21295C"/>
<path d="M85.8067 30.1114C85.8064 30.3789 85.7243 30.6409 85.5696 30.8677C85.415 31.0945 85.194 31.2769 84.9319 31.3942C84.7489 31.4764 84.5499 31.5243 84.3464 31.5351C84.143 31.5459 83.9393 31.5193 83.7472 31.4569C83.3587 31.3328 83.0399 31.0722 82.8608 30.7325C82.6818 30.3928 82.6573 30.0018 82.7926 29.6455C82.928 29.2892 83.2121 28.9968 83.5826 28.8326C83.953 28.6684 84.3793 28.6459 84.7679 28.77C84.9606 28.8311 85.138 28.9269 85.2898 29.0518C85.4416 29.1766 85.5647 29.328 85.6518 29.4971C85.7545 29.6881 85.8075 29.8984 85.8067 30.1114V30.1114Z" fill="#21295C"/>
<path d="M56.5226 61.2424C56.5217 61.5099 56.4386 61.7718 56.283 61.9981C56.1273 62.2244 55.9053 62.4059 55.6424 62.5219C55.3795 62.6379 55.0863 62.6836 54.7963 62.6539C54.5064 62.6242 54.2314 62.5202 54.0029 62.3539C53.769 62.1774 53.5966 61.942 53.507 61.6766C53.4174 61.4112 53.4147 61.1276 53.499 60.8608C53.5834 60.594 53.7512 60.3558 53.9817 60.1756C54.2121 59.9953 54.4951 59.881 54.7957 59.8467C55.0127 59.8244 55.2323 59.8442 55.4403 59.905C55.6483 59.9657 55.8401 60.066 56.003 60.1993C56.1659 60.3325 56.2964 60.4958 56.386 60.6784C56.4755 60.861 56.522 61.0588 56.5226 61.2591L56.5226 61.2424Z" fill="#21295C"/>
<path d="M38.2239 96.084C38.2241 96.1909 38.2103 96.2975 38.1829 96.4015C38.1005 96.744 37.8828 97.0464 37.5718 97.2506C37.2608 97.4547 36.8784 97.5461 36.4983 97.5072C36.1182 97.4683 35.7673 97.3018 35.513 97.0398C35.2587 96.7779 35.1191 96.4389 35.121 96.0881C35.1208 95.9812 35.1346 95.8745 35.162 95.7706C35.2445 95.4281 35.4621 95.1257 35.7731 94.9215C36.0841 94.7174 36.4665 94.626 36.8466 94.6649C37.2267 94.7038 37.5776 94.8703 37.8319 95.1322C38.0862 95.3942 38.2258 95.7332 38.2239 96.084V96.084Z" fill="#21295C"/>
<path d="M29.9449 94.354C29.9463 94.4608 29.9341 94.5674 29.9084 94.6716C29.8259 95.0144 29.6079 95.3171 29.2964 95.5213C28.9849 95.7255 28.602 95.8166 28.2215 95.7771C27.8411 95.7377 27.4901 95.5704 27.2361 95.3076C26.9822 95.0448 26.8434 94.7051 26.8465 94.354C26.8473 94.2473 26.8595 94.1409 26.8829 94.0364C26.9654 93.6935 27.1835 93.3908 27.495 93.1867C27.8065 92.9825 28.1894 92.8914 28.5698 92.9308C28.9503 92.9703 29.3013 93.1376 29.5552 93.4004C29.8091 93.6632 29.9479 94.0029 29.9449 94.354V94.354Z" fill="#21295C"/>
<path d="M222.987 134.841C222.987 134.948 222.974 135.055 222.946 135.159C222.864 135.501 222.646 135.803 222.335 136.008C222.024 136.212 221.642 136.303 221.262 136.264C220.882 136.225 220.531 136.059 220.276 135.797C220.022 135.535 219.883 135.196 219.884 134.845C219.885 134.738 219.898 134.632 219.925 134.528C220.008 134.185 220.226 133.883 220.537 133.679C220.848 133.474 221.23 133.383 221.61 133.422C221.99 133.461 222.341 133.627 222.595 133.889C222.85 134.151 222.989 134.49 222.987 134.841Z" fill="#21295C"/>
<path d="M231.262 136.575C231.261 136.682 231.249 136.788 231.226 136.893C231.143 137.235 230.925 137.538 230.614 137.742C230.303 137.946 229.921 138.037 229.541 137.998C229.161 137.96 228.81 137.793 228.556 137.531C228.301 137.269 228.162 136.93 228.164 136.579C228.164 136.473 228.176 136.366 228.2 136.262C228.282 135.919 228.5 135.617 228.811 135.413C229.122 135.209 229.505 135.117 229.885 135.156C230.265 135.195 230.616 135.362 230.87 135.624C231.124 135.886 231.264 136.224 231.262 136.575V136.575Z" fill="#21295C"/>
<path d="M202.657 31.3566C202.656 31.4612 202.617 31.5626 202.547 31.6449L168.83 70.4187C168.788 70.4658 168.737 70.5051 168.679 70.5342C168.622 70.5634 168.558 70.5817 168.492 70.5883C168.427 70.5949 168.361 70.5896 168.297 70.5727C168.234 70.5558 168.175 70.5276 168.123 70.4897C168.072 70.4518 168.029 70.4051 167.997 70.352C167.966 70.299 167.945 70.2407 167.938 70.1806C167.931 70.1204 167.937 70.0596 167.955 70.0015C167.974 69.9434 168.005 69.8892 168.046 69.842L201.763 31.0683C201.826 30.9864 201.916 30.9254 202.019 30.8945C202.123 30.8636 202.235 30.8645 202.338 30.8971C202.441 30.9297 202.529 30.9921 202.59 31.0751C202.651 31.158 202.681 31.2568 202.675 31.3566L202.657 31.3566Z" fill="#21295C"/>
<path d="M246.804 115.423C246.804 115.545 246.751 115.662 246.657 115.748C246.563 115.834 246.436 115.882 246.303 115.882L192.222 115.882C192.089 115.882 191.962 115.834 191.868 115.748C191.774 115.662 191.721 115.545 191.721 115.423C191.721 115.301 191.774 115.184 191.868 115.098C191.962 115.012 192.089 114.963 192.222 114.963L246.303 114.963C246.436 114.963 246.563 115.012 246.657 115.098C246.751 115.184 246.804 115.301 246.804 115.423V115.423Z" fill="#21295C"/>
<path d="M235.19 68.7681C235.192 68.8555 235.167 68.9416 235.117 69.0158C235.066 69.0901 234.994 69.1493 234.907 69.186L186.185 90.706C186.064 90.7587 185.926 90.7651 185.8 90.724C185.673 90.6828 185.57 90.5975 185.513 90.4867C185.456 90.3758 185.449 90.2486 185.493 90.133C185.538 90.0175 185.631 89.9229 185.752 89.8703L234.474 68.3502C234.551 68.3158 234.635 68.3 234.721 68.3043C234.806 68.3087 234.888 68.333 234.96 68.375C235.032 68.4169 235.091 68.4751 235.131 68.544C235.171 68.6128 235.191 68.69 235.19 68.7681V68.7681Z" fill="#21295C"/>
<path d="M155.643 10.5929C155.648 10.6276 155.648 10.6626 155.643 10.6973L143.601 59.0402C143.586 59.0992 143.559 59.1549 143.521 59.2043C143.482 59.2536 143.434 59.2956 143.378 59.3278C143.322 59.36 143.26 59.3818 143.195 59.392C143.13 59.4021 143.063 59.4004 142.999 59.387C142.935 59.3736 142.874 59.3486 142.82 59.3136C142.766 59.2786 142.721 59.2343 142.685 59.183C142.65 59.1318 142.627 59.0748 142.616 59.0151C142.604 58.9555 142.606 58.8944 142.621 58.8354L154.654 10.4884C154.683 10.3794 154.754 10.2836 154.854 10.219C154.953 10.1545 155.076 10.1256 155.197 10.138C155.319 10.1503 155.431 10.2029 155.513 10.2859C155.595 10.3689 155.642 10.4766 155.643 10.5887L155.643 10.5929Z" fill="#21295C"/>
<path d="M115.501 58.9441C115.505 59.0597 115.461 59.1723 115.379 59.2596C115.296 59.3469 115.18 59.4025 115.055 59.4151C114.93 59.4278 114.804 59.3966 114.702 59.3279C114.601 59.2592 114.531 59.1579 114.508 59.0444L102.474 10.6973C102.445 10.5782 102.468 10.4532 102.539 10.3497C102.61 10.2463 102.723 10.1729 102.852 10.1458C102.982 10.1186 103.119 10.1399 103.231 10.2049C103.344 10.27 103.424 10.3735 103.454 10.4926L115.487 58.8396L115.501 58.9441Z" fill="#21295C"/>
<path d="M90.1719 70.1303C90.1709 70.1995 90.1533 70.2676 90.1202 70.3297C90.0871 70.3919 90.0394 70.4465 89.9805 70.4897C89.877 70.5651 89.7452 70.6 89.6137 70.5867C89.4823 70.5734 89.3619 70.513 89.2788 70.4186L55.5612 31.6449C55.5199 31.5978 55.4892 31.5436 55.4707 31.4855C55.4523 31.4274 55.4465 31.3665 55.4537 31.3064C55.4609 31.2463 55.4809 31.188 55.5126 31.135C55.5444 31.0819 55.5872 31.0351 55.6387 30.9973C55.6901 30.9594 55.7492 30.9312 55.8126 30.9143C55.8759 30.8973 55.9423 30.892 56.0078 30.8986C56.0734 30.9052 56.1369 30.9236 56.1948 30.9527C56.2526 30.9818 56.3036 31.0211 56.3449 31.0683L90.0625 69.842C90.1328 69.9243 90.1713 70.0258 90.1719 70.1303V70.1303Z" fill="#21295C"/>
<path d="M72.6432 90.2882C72.6418 90.3575 72.6247 90.4258 72.5931 90.4887C72.5342 90.5977 72.431 90.6811 72.3057 90.7209C72.1804 90.7608 72.0431 90.7539 71.9233 90.7018L23.2013 69.1818C23.1418 69.1563 23.0885 69.1202 23.0444 69.0755C23.0004 69.0308 22.9665 68.9785 22.9449 68.9217C22.9232 68.8648 22.9142 68.8046 22.9183 68.7445C22.9225 68.6844 22.9397 68.6256 22.9689 68.5717C22.9968 68.5172 23.0361 68.4682 23.0847 68.4277C23.1334 68.3872 23.1902 68.3559 23.2521 68.3357C23.314 68.3155 23.3796 68.3068 23.4452 68.31C23.5108 68.3132 23.575 68.3283 23.6342 68.3544L72.3561 89.8745C72.442 89.9111 72.5147 89.9696 72.5656 90.0429C72.6164 90.1162 72.6434 90.2013 72.6432 90.2882Z" fill="#21295C"/>
<path d="M66.3873 115.423C66.3873 115.545 66.3345 115.662 66.2405 115.748C66.1465 115.834 66.019 115.882 65.8861 115.882L11.8058 115.882C11.6728 115.882 11.5454 115.834 11.4514 115.748C11.3574 115.662 11.3046 115.545 11.3046 115.423C11.3046 115.301 11.3574 115.184 11.4514 115.098C11.5454 115.012 11.6728 114.963 11.8058 114.963L65.8861 114.963C66.019 114.963 66.1465 115.012 66.2405 115.098C66.3345 115.184 66.3873 115.301 66.3873 115.423V115.423Z" fill="#21295C"/>
<path d="M213.779 97.793C213.78 97.8971 213.743 97.9984 213.672 98.0799C213.602 98.1614 213.502 98.218 213.392 98.2401L190.751 102.979C190.625 102.997 190.496 102.971 190.391 102.906C190.285 102.841 190.21 102.741 190.182 102.628C190.154 102.514 190.174 102.394 190.238 102.293C190.302 102.193 190.405 102.118 190.527 102.084L213.168 97.3459C213.232 97.3324 213.299 97.3306 213.363 97.3407C213.428 97.3509 213.49 97.3727 213.546 97.405C213.601 97.4372 213.649 97.4793 213.687 97.5287C213.725 97.5781 213.751 97.6338 213.765 97.6927C213.774 97.7255 213.779 97.7592 213.779 97.793Z" fill="#21295C"/>
<path d="M197.098 66.0269C197.098 66.0957 197.081 66.1637 197.048 66.2259C197.016 66.288 196.969 66.3428 196.911 66.3863L178.754 79.6618C178.65 79.7373 178.518 79.7721 178.387 79.7588C178.255 79.7455 178.135 79.6851 178.052 79.5908C177.969 79.4952 177.931 79.3736 177.946 79.2524C177.96 79.1312 178.026 79.0201 178.129 78.9431L196.282 65.6675C196.386 65.5918 196.519 65.5569 196.651 65.5702C196.783 65.5835 196.904 65.644 196.988 65.7386C197.059 65.8209 197.097 65.9223 197.098 66.0269Z" fill="#21295C"/>
<path d="M167.039 44.043C167.038 44.1123 167.02 44.1806 166.989 44.2436L156.915 63.4278C156.854 63.5386 156.748 63.6229 156.62 63.6621C156.492 63.7012 156.352 63.6921 156.231 63.6367C156.11 63.5813 156.018 63.4841 155.976 63.3666C155.933 63.249 155.943 63.1207 156.003 63.0099L166.078 43.8215C166.127 43.7279 166.21 43.6524 166.312 43.6074C166.414 43.5624 166.53 43.5506 166.641 43.5739C166.751 43.5972 166.85 43.6542 166.921 43.7356C166.991 43.8171 167.03 43.918 167.03 44.0221L167.039 44.043Z" fill="#21295C"/>
<path d="M130.606 28.536C130.607 28.8182 130.516 29.0943 130.346 29.3293C130.175 29.5642 129.933 29.7475 129.649 29.8559C129.365 29.9642 129.052 29.9928 128.75 29.9379C128.448 29.8831 128.171 29.7473 127.953 29.5478C127.736 29.3482 127.588 29.094 127.528 28.8172C127.468 28.5404 127.499 28.2535 127.617 27.993C127.735 27.7325 127.935 27.51 128.192 27.3537C128.448 27.1975 128.749 27.1145 129.056 27.1153C129.467 27.1164 129.86 27.2664 130.151 27.5326C130.441 27.7988 130.604 28.1596 130.606 28.536Z" fill="#21295C"/>
<path d="M130.606 20.7387C130.606 21.0207 130.514 21.2963 130.343 21.5307C130.173 21.7652 129.93 21.9478 129.645 22.0555C129.361 22.1633 129.049 22.1912 128.747 22.1359C128.446 22.0806 128.169 21.9445 127.952 21.7448C127.735 21.5451 127.587 21.2908 127.527 21.0141C127.468 20.7374 127.499 20.4508 127.618 20.1905C127.736 19.9302 127.936 19.7079 128.192 19.5519C128.448 19.3958 128.749 19.3129 129.056 19.3137C129.468 19.3149 129.862 19.4655 130.152 19.7326C130.443 19.9997 130.606 20.3615 130.606 20.7387Z" fill="#21295C"/>
<path d="M129.561 36.1955L129.561 57.5066C129.561 57.567 129.548 57.6268 129.523 57.6825C129.498 57.7383 129.461 57.7889 129.414 57.8316C129.367 57.8743 129.312 57.9082 129.251 57.9313C129.19 57.9544 129.124 57.9663 129.058 57.9663C128.992 57.9663 128.927 57.9544 128.866 57.9313C128.805 57.9082 128.749 57.8743 128.703 57.8316C128.656 57.7889 128.619 57.7383 128.594 57.6825C128.568 57.6268 128.555 57.567 128.555 57.5066L128.555 36.1955C128.555 36.1351 128.568 36.0754 128.594 36.0196C128.619 35.9638 128.656 35.9131 128.703 35.8705C128.749 35.8278 128.805 35.7939 128.866 35.7708C128.927 35.7477 128.992 35.7358 129.058 35.7358C129.124 35.7358 129.19 35.7477 129.251 35.7708C129.312 35.7939 129.367 35.8278 129.414 35.8705C129.461 35.9131 129.498 35.9638 129.523 36.0196C129.548 36.0754 129.561 36.1351 129.561 36.1955V36.1955Z" fill="#21295C"/>
<path d="M102.146 63.2188C102.146 63.3229 102.108 63.4239 102.037 63.5053C101.967 63.5867 101.868 63.6438 101.757 63.667C101.647 63.6903 101.531 63.6785 101.428 63.6335C101.326 63.5886 101.243 63.5131 101.194 63.4194L91.1197 44.2436C91.0629 44.1337 91.0554 44.0077 91.0989 43.8928C91.1423 43.778 91.2333 43.6833 91.3521 43.6293C91.4112 43.6024 91.4756 43.5865 91.5414 43.5827C91.6073 43.5789 91.6734 43.5871 91.7357 43.6069C91.7981 43.6268 91.8555 43.6578 91.9046 43.6983C91.9538 43.7387 91.9936 43.7877 92.0219 43.8424L102.096 63.0308C102.129 63.089 102.146 63.1534 102.146 63.2188V63.2188Z" fill="#21295C"/>
<path d="M80.1841 79.3025C80.1861 79.4074 80.1473 79.5096 80.0748 79.5908C79.9917 79.6851 79.8713 79.7455 79.7399 79.7588C79.6084 79.7722 79.4766 79.7373 79.3731 79.6618L61.2202 66.3863C61.1664 66.3494 61.1213 66.3031 61.0874 66.2499C61.0535 66.1967 61.0316 66.1379 61.023 66.0768C61.0144 66.0158 61.0193 65.9537 61.0374 65.8944C61.0554 65.8351 61.0863 65.7798 61.1281 65.7316C61.1699 65.6834 61.2219 65.6435 61.2808 65.6141C61.3398 65.5847 61.4047 65.5665 61.4715 65.5605C61.5383 65.5545 61.6057 65.5609 61.6698 65.5793C61.7339 65.5977 61.7933 65.6277 61.8445 65.6675L79.9973 78.9431C80.0556 78.9865 80.1026 79.0413 80.1349 79.1035C80.1672 79.1656 80.184 79.2336 80.1841 79.3025Z" fill="#21295C"/>
<path d="M67.9684 102.532L67.9684 102.636C67.9381 102.755 67.8577 102.857 67.7449 102.921C67.6322 102.986 67.4962 103.006 67.367 102.979L44.7306 98.2401C44.6661 98.2278 44.6049 98.2038 44.5507 98.1694C44.4965 98.1349 44.4504 98.0909 44.4152 98.0399C44.3799 97.9888 44.3562 97.9318 44.3454 97.8721C44.3346 97.8125 44.337 97.7515 44.3524 97.6927C44.3669 97.6337 44.394 97.5778 44.4321 97.5284C44.4703 97.479 44.5187 97.4369 44.5745 97.4047C44.6304 97.3725 44.6927 97.3507 44.7578 97.3406C44.8229 97.3305 44.8895 97.3323 44.9538 97.3459L67.5811 102.08C67.6919 102.104 67.7907 102.162 67.8611 102.244C67.9315 102.326 67.9693 102.427 67.9684 102.532V102.532Z" fill="#21295C"/>
<path d="M213.779 133.136C213.783 133.169 213.783 133.203 213.779 133.236C213.765 133.296 213.739 133.352 213.702 133.401C213.664 133.451 213.616 133.493 213.56 133.526C213.505 133.558 213.443 133.58 213.378 133.59C213.313 133.6 213.246 133.597 213.182 133.583L190.527 128.824C190.405 128.79 190.302 128.716 190.238 128.615C190.174 128.514 190.154 128.394 190.182 128.281C190.21 128.167 190.285 128.067 190.391 128.002C190.496 127.937 190.625 127.911 190.751 127.929L213.392 132.668C213.506 132.692 213.608 132.751 213.679 132.837C213.749 132.923 213.785 133.029 213.779 133.136V133.136Z" fill="#21295C"/>
<path d="M67.9683 128.406C67.969 128.51 67.931 128.611 67.8606 128.692C67.7901 128.773 67.6915 128.83 67.581 128.853L44.9446 133.592C44.879 133.61 44.8099 133.615 44.7419 133.607C44.6738 133.6 44.6081 133.58 44.5489 133.548C44.4897 133.516 44.4382 133.474 44.3976 133.423C44.357 133.373 44.3281 133.315 44.3128 133.254C44.2975 133.192 44.2961 133.129 44.3086 133.067C44.3211 133.005 44.3474 132.946 44.3857 132.894C44.424 132.842 44.4735 132.798 44.5312 132.764C44.589 132.73 44.6537 132.707 44.7214 132.697L67.3578 127.959C67.4221 127.945 67.4887 127.943 67.5538 127.953C67.6189 127.963 67.6812 127.985 67.7371 128.018C67.7929 128.05 67.8413 128.092 67.8795 128.141C67.9176 128.191 67.9447 128.246 67.9592 128.306L67.9683 128.406Z" fill="#21295C"/>
<path d="M38.2239 134.845C38.2258 135.196 38.0862 135.535 37.8319 135.797C37.5776 136.059 37.2267 136.225 36.8466 136.264C36.4665 136.303 36.0841 136.212 35.7731 136.008C35.4621 135.803 35.2445 135.501 35.162 135.159C35.1346 135.055 35.1208 134.948 35.121 134.841C35.1191 134.49 35.2587 134.151 35.513 133.889C35.7673 133.627 36.1182 133.461 36.4983 133.422C36.8784 133.383 37.2608 133.474 37.5718 133.679C37.8828 133.883 38.1005 134.185 38.1829 134.528C38.21 134.632 38.2238 134.738 38.2239 134.845V134.845Z" fill="#21295C"/>
<path d="M29.9448 136.579C29.9467 136.93 29.8071 137.269 29.5528 137.531C29.2986 137.793 28.9476 137.96 28.5675 137.998C28.1874 138.037 27.8051 137.946 27.494 137.742C27.183 137.538 26.9654 137.235 26.8829 136.893C26.8595 136.788 26.8473 136.682 26.8465 136.575C26.8445 136.225 26.9842 135.886 27.2385 135.624C27.4927 135.362 27.8437 135.195 28.2238 135.156C28.6039 135.117 28.9862 135.209 29.2972 135.413C29.6082 135.617 29.8259 135.919 29.9084 136.262C29.9342 136.366 29.9465 136.473 29.9448 136.579V136.579Z" fill="#21295C"/>
</g>
<defs>
<clipPath id="clip0_3_2">
<rect width="138" height="258.104" fill="white" transform="translate(0 138) rotate(-90)"/>
</clipPath>
</defs>
</svg>
